<svg viewBox="0 0 200 200" xmlns="http://www.w3.org/2000/svg">
  <!-- Neon Pink outer circle -->
  <circle cx="100" cy="100" r="95" fill="#f12869"/>

  <!-- Midnight Navy gap -->
  <circle cx="100" cy="100" r="84" fill="#010013"/>

  <!-- Electric Blue middle circle -->
  <circle cx="100" cy="100" r="72" fill="#319edb"/>

  <!-- Midnight Navy circle -->
  <circle cx="100" cy="100" r="60" fill="#010013"/>

  <!-- Buttery Yellow popcorn kernel -->
  <g transform="translate(65 34) rotate(18) scale(0.66)">
    <path
      d="M 98.00 137.91 C95.53,137.43 90.53,135.57 86.91,133.77 L 80.31 130.50 L 74.91 133.22 C67.50,136.95 60.16,138.30 50.05,137.80 C38.68,137.24 30.03,133.23 21.49,124.58 C6.49,109.40 2.84,88.91 11.96,71.08 C14.97,65.19 23.37,56.95 29.25,54.11 C33.42,52.10 34.00,51.43 34.02,48.66 C34.17,30.36 51.02,10.46 70.11,6.06 C82.27,3.26 97.04,5.68 107.17,12.13 C119.22,19.81 128.00,35.01 128.00,48.19 C128.00,51.62 128.38,52.15 132.25,54.10 C142.56,59.29 149.57,67.63 153.02,78.81 C158.05,95.08 153.30,112.63 140.57,124.86 C128.69,136.27 113.53,140.91 98.00,137.91 ZM 116.13 115.47 C125.59,112.25 132.69,103.41 133.70,93.59 C134.19,88.91 133.86,87.23 131.54,82.49 C128.43,76.14 124.10,72.76 116.74,70.94 C113.63,70.17 111.11,68.73 109.49,66.80 C106.72,63.52 106.79,63.86 106.61,52.00 C106.45,42.08 104.38,37.11 98.28,32.07 C94.26,28.74 86.67,26.00 81.50,26.00 C76.09,26.00 68.57,28.82 64.35,32.43 C58.27,37.64 55.85,44.12 56.13,54.45 C56.46,66.16 54.91,68.31 44.19,71.02 C39.53,72.20 32.74,77.66 30.46,82.07 C26.32,90.08 28.23,100.72 35.10,107.87 C40.47,113.45 45.99,115.95 53.00,115.97 C60.70,116.00 65.06,114.56 71.16,109.97 C78.72,104.29 82.76,104.53 91.00,111.13 C98.02,116.75 107.54,118.40 116.13,115.47 Z"
      fill="#fade05"
    />
  </g>
</svg>